<svg xmlns:xlink="http://www.w3.org/1999/xlink" xmlns="http://www.w3.org/2000/svg" width="1000.0" height="585.183129856">
  <desc>Created by CircuitLab https://www.circuitlab.com/</desc><g transform="matrix(0.554938956714,0,0,0.554938956714,-866.53718091,-575.194228635)">
    <rect x="2437.5" y="1062.5" width="275" height="775" r="0" rx="0" ry="0" fill="#ffffff" stroke="#000000" stroke-width="2"/>
    <text fill="#000000" x="2575" y="1426" text-anchor="middle" text-decoration="none" style="font-family: Arial; font-size: 16px; font-weight: bold;">ESP32 WROOM</text>
    <text fill="#000000" x="2575" y="1450" text-anchor="middle" text-decoration="none" style="font-family: Arial; font-size: 16px; font-weight: bold;"/>
    <text fill="#000000" x="2575" y="1474" text-anchor="middle" text-decoration="none" style="font-family: Arial; font-size: 16px; font-weight: bold;"/>
    <path fill="none" stroke="#000000" d="M2425,1100L2437.5,1100" stroke-width="2"/>
    <text fill="#000000" x="2445" y="1104" text-anchor="start" text-decoration="none" style="font-family: Arial; font-size: 12px;">EN</text>
    <text fill="#000000" x="2430" y="1097" text-anchor="middle" style="font-family: Arial; font-size: 12px;"/>
    <path fill="none" stroke="#000000" d="M2425,1800L2437.5,1800" stroke-width="2"/>
    <text fill="#000000" x="2445" y="1804" text-anchor="start" text-decoration="none" style="font-family: Arial; font-size: 12px;">VIN</text>
    <text fill="#000000" x="2430" y="1797" text-anchor="middle" style="font-family: Arial; font-size: 12px;"/>
    <path fill="none" stroke="#000000" d="M2425,1750L2437.5,1750" stroke-width="2"/>
    <text fill="#000000" x="2445" y="1754" text-anchor="start" text-decoration="none" style="font-family: Arial; font-size: 12px;">GND</text>
    <text fill="#000000" x="2430" y="1747" text-anchor="middle" style="font-family: Arial; font-size: 12px;"/>
    <path fill="none" stroke="#000000" d="M2725,1800L2712.5,1800" stroke-width="2"/>
    <text fill="#000000" x="2705" y="1804" text-anchor="end" text-decoration="none" style="font-family: Arial; font-size: 12px;">3.3V</text>
    <text fill="#000000" x="2720" y="1797" text-anchor="middle" style="font-family: Arial; font-size: 12px;"/>
    <path fill="none" stroke="#000000" d="M2725,1750L2712.5,1750" stroke-width="2"/>
    <text fill="#000000" x="2705" y="1754" text-anchor="end" text-decoration="none" style="font-family: Arial; font-size: 12px;">GND</text>
    <text fill="#000000" x="2720" y="1747" text-anchor="middle" style="font-family: Arial; font-size: 12px;"/>
    <path fill="none" stroke="#000000" d="M2425,1700L2437.5,1700" stroke-width="2"/>
    <text fill="#000000" x="2445" y="1704" text-anchor="start" text-decoration="none" style="font-family: Arial; font-size: 12px;">D13</text>
    <text fill="#000000" x="2430" y="1697" text-anchor="middle" style="font-family: Arial; font-size: 12px;"/>
    <path fill="none" stroke="#000000" d="M2425,1650L2437.5,1650" stroke-width="2"/>
    <text fill="#000000" x="2445" y="1654" text-anchor="start" text-decoration="none" style="font-family: Arial; font-size: 12px;">D12</text>
    <text fill="#000000" x="2430" y="1647" text-anchor="middle" style="font-family: Arial; font-size: 12px;"/>
    <path fill="none" stroke="#000000" d="M2425,1600L2437.5,1600" stroke-width="2"/>
    <text fill="#000000" x="2445" y="1604" text-anchor="start" text-decoration="none" style="font-family: Arial; font-size: 12px;">D14</text>
    <text fill="#000000" x="2430" y="1597" text-anchor="middle" style="font-family: Arial; font-size: 12px;"/>
    <path fill="none" stroke="#000000" d="M2725,1100L2712.5,1100" stroke-width="2"/>
    <text fill="#000000" x="2705" y="1104" text-anchor="end" text-decoration="none" style="font-family: Arial; font-size: 12px;">D23</text>
    <text fill="#000000" x="2720" y="1097" text-anchor="middle" style="font-family: Arial; font-size: 12px;"/>
    <path fill="none" stroke="#000000" d="M2425,1550L2437.5,1550" stroke-width="2"/>
    <text fill="#000000" x="2445" y="1554" text-anchor="start" text-decoration="none" style="font-family: Arial; font-size: 12px;">D27</text>
    <text fill="#000000" x="2430" y="1547" text-anchor="middle" style="font-family: Arial; font-size: 12px;"/>
    <path fill="none" stroke="#000000" d="M2425,1500L2437.5,1500" stroke-width="2"/>
    <text fill="#000000" x="2445" y="1504" text-anchor="start" text-decoration="none" style="font-family: Arial; font-size: 12px;">D26</text>
    <text fill="#000000" x="2430" y="1497" text-anchor="middle" style="font-family: Arial; font-size: 12px;"/>
    <path fill="none" stroke="#000000" d="M2425,1450L2437.5,1450" stroke-width="2"/>
    <text fill="#000000" x="2445" y="1454" text-anchor="start" text-decoration="none" style="font-family: Arial; font-size: 12px;">D25</text>
    <text fill="#000000" x="2430" y="1447" text-anchor="middle" style="font-family: Arial; font-size: 12px;"/>
    <path fill="none" stroke="#000000" d="M2425,1400L2437.5,1400" stroke-width="2"/>
    <text fill="#000000" x="2445" y="1404" text-anchor="start" text-decoration="none" style="font-family: Arial; font-size: 12px;">D33</text>
    <text fill="#000000" x="2430" y="1397" text-anchor="middle" style="font-family: Arial; font-size: 12px;"/>
    <path fill="none" stroke="#000000" d="M2425,1350L2437.5,1350" stroke-width="2"/>
    <text fill="#000000" x="2445" y="1354" text-anchor="start" text-decoration="none" style="font-family: Arial; font-size: 12px;">D32</text>
    <text fill="#000000" x="2430" y="1347" text-anchor="middle" style="font-family: Arial; font-size: 12px;"/>
    <path fill="none" stroke="#000000" d="M2425,1300L2437.5,1300" stroke-width="2"/>
    <text fill="#000000" x="2445" y="1304" text-anchor="start" text-decoration="none" style="font-family: Arial; font-size: 12px;">D35</text>
    <text fill="#000000" x="2430" y="1297" text-anchor="middle" style="font-family: Arial; font-size: 12px;"/>
    <path fill="none" stroke="#000000" d="M2425,1250L2437.5,1250" stroke-width="2"/>
    <text fill="#000000" x="2445" y="1254" text-anchor="start" text-decoration="none" style="font-family: Arial; font-size: 12px;">D34</text>
    <text fill="#000000" x="2430" y="1247" text-anchor="middle" style="font-family: Arial; font-size: 12px;"/>
    <path fill="none" stroke="#000000" d="M2425,1200L2437.5,1200" stroke-width="2"/>
    <text fill="#000000" x="2445" y="1204" text-anchor="start" text-decoration="none" style="font-family: Arial; font-size: 12px;">VN</text>
    <text fill="#000000" x="2430" y="1197" text-anchor="middle" style="font-family: Arial; font-size: 12px;"/>
    <path fill="none" stroke="#000000" d="M2425,1150L2437.5,1150" stroke-width="2"/>
    <text fill="#000000" x="2445" y="1154" text-anchor="start" text-decoration="none" style="font-family: Arial; font-size: 12px;">VP</text>
    <text fill="#000000" x="2430" y="1147" text-anchor="middle" style="font-family: Arial; font-size: 12px;"/>
    <path fill="none" stroke="#000000" d="M2725,1700L2712.5,1700" stroke-width="2"/>
    <text fill="#000000" x="2705" y="1704" text-anchor="end" text-decoration="none" style="font-family: Arial; font-size: 12px;">D12</text>
    <text fill="#000000" x="2720" y="1697" text-anchor="middle" style="font-family: Arial; font-size: 12px;"/>
    <path fill="none" stroke="#000000" d="M2725,1650L2712.5,1650" stroke-width="2"/>
    <text fill="#000000" x="2705" y="1654" text-anchor="end" text-decoration="none" style="font-family: Arial; font-size: 12px;">D2</text>
    <text fill="#000000" x="2720" y="1647" text-anchor="middle" style="font-family: Arial; font-size: 12px;"/>
    <path fill="none" stroke="#000000" d="M2725,1600L2712.5,1600" stroke-width="2"/>
    <text fill="#000000" x="2705" y="1604" text-anchor="end" text-decoration="none" style="font-family: Arial; font-size: 12px;">D4</text>
    <text fill="#000000" x="2720" y="1597" text-anchor="middle" style="font-family: Arial; font-size: 12px;"/>
    <path fill="none" stroke="#000000" d="M2725,1550L2712.5,1550" stroke-width="2"/>
    <text fill="#000000" x="2705" y="1554" text-anchor="end" text-decoration="none" style="font-family: Arial; font-size: 12px;">RX2</text>
    <text fill="#000000" x="2720" y="1547" text-anchor="middle" style="font-family: Arial; font-size: 12px;"/>
    <path fill="none" stroke="#000000" d="M2725,1500L2712.5,1500" stroke-width="2"/>
    <text fill="#000000" x="2705" y="1504" text-anchor="end" text-decoration="none" style="font-family: Arial; font-size: 12px;">TX2</text>
    <text fill="#000000" x="2720" y="1497" text-anchor="middle" style="font-family: Arial; font-size: 12px;"/>
    <path fill="none" stroke="#000000" d="M2725,1450L2712.5,1450" stroke-width="2"/>
    <text fill="#000000" x="2705" y="1454" text-anchor="end" text-decoration="none" style="font-family: Arial; font-size: 12px;">D5</text>
    <text fill="#000000" x="2720" y="1447" text-anchor="middle" style="font-family: Arial; font-size: 12px;"/>
    <path fill="none" stroke="#000000" d="M2725,1400L2712.5,1400" stroke-width="2"/>
    <text fill="#000000" x="2705" y="1404" text-anchor="end" text-decoration="none" style="font-family: Arial; font-size: 12px;">D18</text>
    <text fill="#000000" x="2720" y="1397" text-anchor="middle" style="font-family: Arial; font-size: 12px;"/>
    <path fill="none" stroke="#000000" d="M2725,1350L2712.5,1350" stroke-width="2"/>
    <text fill="#000000" x="2705" y="1354" text-anchor="end" text-decoration="none" style="font-family: Arial; font-size: 12px;">D19</text>
    <text fill="#000000" x="2720" y="1347" text-anchor="middle" style="font-family: Arial; font-size: 12px;"/>
    <path fill="none" stroke="#000000" d="M2725,1300L2712.5,1300" stroke-width="2"/>
    <text fill="#000000" x="2705" y="1304" text-anchor="end" text-decoration="none" style="font-family: Arial; font-size: 12px;">D21/SDA</text>
    <text fill="#000000" x="2720" y="1297" text-anchor="middle" style="font-family: Arial; font-size: 12px;"/>
    <path fill="none" stroke="#000000" d="M2725,1250L2712.5,1250" stroke-width="2"/>
    <text fill="#000000" x="2705" y="1254" text-anchor="end" text-decoration="none" style="font-family: Arial; font-size: 12px;">RX0</text>
    <text fill="#000000" x="2720" y="1247" text-anchor="middle" style="font-family: Arial; font-size: 12px;"/>
    <path fill="none" stroke="#000000" d="M2725,1200L2712.5,1200" stroke-width="2"/>
    <text fill="#000000" x="2705" y="1204" text-anchor="end" text-decoration="none" style="font-family: Arial; font-size: 12px;">TX0</text>
    <text fill="#000000" x="2720" y="1197" text-anchor="middle" style="font-family: Arial; font-size: 12px;"/>
    <path fill="none" stroke="#000000" d="M2725,1150L2712.5,1150" stroke-width="2"/>
    <text fill="#000000" x="2705" y="1154" text-anchor="end" text-decoration="none" style="font-family: Arial; font-size: 12px;">D22/SCL</text>
    <text fill="#000000" x="2720" y="1147" text-anchor="middle" style="font-family: Arial; font-size: 12px;"/>
    <rect x="2962.5" y="1037.5" width="225" height="200" r="0" rx="0" ry="0" fill="#ffffff" stroke="#000000" stroke-width="2"/>
    <text fill="#000000" x="3075" y="1113.5" text-anchor="middle" text-decoration="none" style="font-family: Arial; font-size: 16px; font-weight: bold;">OLED</text>
    <text fill="#000000" x="3075" y="1137.5" text-anchor="middle" text-decoration="none" style="font-family: Arial; font-size: 16px; font-weight: bold;">128x64</text>
    <text fill="#000000" x="3075" y="1161.5" text-anchor="middle" text-decoration="none" style="font-family: Arial; font-size: 16px; font-weight: bold;">I2C</text>
    <path fill="none" stroke="#000000" d="M3000,1250L3000,1237.5" stroke-width="2"/>
    <text fill="#000000" x="3000" y="1230" text-anchor="middle" text-decoration="none" style="font-family: Arial; font-size: 12px;">VCC</text>
    <text fill="#000000" x="2992" y="1250" text-anchor="middle" style="font-family: Arial; font-size: 12px;"/>
    <path fill="none" stroke="#000000" d="M3050,1250L3050,1237.5" stroke-width="2"/>
    <text fill="#000000" x="3050" y="1230" text-anchor="middle" text-decoration="none" style="font-family: Arial; font-size: 12px;">GND</text>
    <text fill="#000000" x="3042" y="1250" text-anchor="middle" style="font-family: Arial; font-size: 12px;"/>
    <path fill="none" stroke="#000000" d="M3100,1250L3100,1237.5" stroke-width="2"/>
    <text fill="#000000" x="3100" y="1230" text-anchor="middle" text-decoration="none" style="font-family: Arial; font-size: 12px;">SCL</text>
    <text fill="#000000" x="3092" y="1250" text-anchor="middle" style="font-family: Arial; font-size: 12px;"/>
    <path fill="none" stroke="#000000" d="M3150,1250L3150,1237.5" stroke-width="2"/>
    <text fill="#000000" x="3150" y="1230" text-anchor="middle" text-decoration="none" style="font-family: Arial; font-size: 12px;">SDA</text>
    <text fill="#000000" x="3142" y="1250" text-anchor="middle" style="font-family: Arial; font-size: 12px;"/>
    <rect x="1562.5" y="1112.5" width="375" height="375" r="0" rx="0" ry="0" fill="#ffffff" stroke="#000000" stroke-width="2"/>
    <text fill="#000000" x="1750" y="1276" text-anchor="middle" text-decoration="none" style="font-family: Arial; font-size: 16px; font-weight: bold;">LED PANNEL</text>
    <text fill="#000000" x="1750" y="1300" text-anchor="middle" text-decoration="none" style="font-family: Arial; font-size: 16px; font-weight: bold;">22x22</text>
    <text fill="#000000" x="1750" y="1324" text-anchor="middle" text-decoration="none" style="font-family: Arial; font-size: 16px; font-weight: bold;">WS2812B</text>
    <path fill="none" stroke="#000000" d="M1750,1500L1750,1487.5" stroke-width="2"/>
    <text fill="#000000" x="1750" y="1480" text-anchor="middle" text-decoration="none" style="font-family: Arial; font-size: 12px;">DIN</text>
    <text fill="#000000" x="1742" y="1500" text-anchor="middle" style="font-family: Arial; font-size: 12px;"/>
    <path fill="none" stroke="#000000" d="M1700,1500L1700,1487.5" stroke-width="2"/>
    <text fill="#000000" x="1700" y="1480" text-anchor="middle" text-decoration="none" style="font-family: Arial; font-size: 12px;">5V</text>
    <text fill="#000000" x="1692" y="1500" text-anchor="middle" style="font-family: Arial; font-size: 12px;"/>
    <path fill="none" stroke="#000000" d="M1800,1500L1800,1487.5" stroke-width="2"/>
    <text fill="#000000" x="1800" y="1480" text-anchor="middle" text-decoration="none" style="font-family: Arial; font-size: 12px;">GND</text>
    <text fill="#000000" x="1792" y="1500" text-anchor="middle" style="font-family: Arial; font-size: 12px;"/>
    <rect x="3162.5" y="1537.5" width="200" height="250" r="0" rx="0" ry="0" fill="#ffffff" stroke="#000000" stroke-width="2"/>
    <text fill="#000000" x="3262.5" y="1638.5" text-anchor="middle" text-decoration="none" style="font-family: Arial; font-size: 16px; font-weight: bold;">BME280</text>
    <text fill="#000000" x="3262.5" y="1662.5" text-anchor="middle" text-decoration="none" style="font-family: Arial; font-size: 16px; font-weight: bold;">Temp/Humid</text>
    <text fill="#000000" x="3262.5" y="1686.5" text-anchor="middle" text-decoration="none" style="font-family: Arial; font-size: 16px; font-weight: bold;">Sensor</text>
    <path fill="none" stroke="#000000" d="M3150,1575L3162.5,1575" stroke-width="2"/>
    <text fill="#000000" x="3170" y="1579" text-anchor="start" text-decoration="none" style="font-family: Arial; font-size: 12px;">VIN</text>
    <text fill="#000000" x="3155" y="1572" text-anchor="middle" style="font-family: Arial; font-size: 12px;"/>
    <path fill="none" stroke="#000000" d="M3150,1625L3162.5,1625" stroke-width="2"/>
    <text fill="#000000" x="3170" y="1629" text-anchor="start" text-decoration="none" style="font-family: Arial; font-size: 12px;">GND</text>
    <text fill="#000000" x="3155" y="1622" text-anchor="middle" style="font-family: Arial; font-size: 12px;"/>
    <path fill="none" stroke="#000000" d="M3150,1675L3162.5,1675" stroke-width="2"/>
    <text fill="#000000" x="3170" y="1679" text-anchor="start" text-decoration="none" style="font-family: Arial; font-size: 12px;">SCL</text>
    <text fill="#000000" x="3155" y="1672" text-anchor="middle" style="font-family: Arial; font-size: 12px;"/>
    <path fill="none" stroke="#000000" d="M3150,1725L3162.5,1725" stroke-width="2"/>
    <text fill="#000000" x="3170" y="1729" text-anchor="start" text-decoration="none" style="font-family: Arial; font-size: 12px;">SDA</text>
    <text fill="#000000" x="3155" y="1722" text-anchor="middle" style="font-family: Arial; font-size: 12px;"/>
    <rect x="2012.5" y="1212.5" width="125" height="175" r="0" rx="0" ry="0" fill="#ffffff" stroke="#000000" stroke-width="2"/>
    <text fill="#000000" x="2075" y="1276" text-anchor="middle" text-decoration="none" style="font-family: Arial; font-size: 16px; font-weight: bold;">5Button</text>
    <text fill="#000000" x="2075" y="1300" text-anchor="middle" text-decoration="none" style="font-family: Arial; font-size: 16px; font-weight: bold;">Keypad</text>
    <text fill="#000000" x="2075" y="1324" text-anchor="middle" text-decoration="none" style="font-family: Arial; font-size: 16px; font-weight: bold;"/>
    <path fill="none" stroke="#000000" d="M2150,1250L2137.5,1250" stroke-width="2"/>
    <text fill="#000000" x="2130" y="1254" text-anchor="end" text-decoration="none" style="font-family: Arial; font-size: 12px;">A</text>
    <text fill="#000000" x="2145" y="1247" text-anchor="middle" style="font-family: Arial; font-size: 12px;"/>
    <path fill="none" stroke="#000000" d="M2150,1300L2137.5,1300" stroke-width="2"/>
    <text fill="#000000" x="2130" y="1304" text-anchor="end" text-decoration="none" style="font-family: Arial; font-size: 12px;">B</text>
    <text fill="#000000" x="2145" y="1297" text-anchor="middle" style="font-family: Arial; font-size: 12px;"/>
    <path style="stroke-linecap: round; stroke-miterlimit: 6;" fill="none" stroke="#000000" d="M25,20L25,0" stroke-width="2" stroke-linecap="round" stroke-miterlimit="6" transform="translate(2350,2050)"/>
    <path style="stroke-linecap: round; stroke-linejoin: round; stroke-miterlimit: 6;" fill="#ffffff" stroke="#000000" d="M5,20L25,40L45,20Z" stroke-width="2" stroke-linecap="round" stroke-linejoin="round" stroke-miterlimit="6" transform="translate(2350,2050)"/>
    <path style="stroke-linecap: round;" fill="none" stroke="#000000" d="M 1800 1500 L 1800 1643 A 7 7 0 1 1 1800 1657 L 1800 1750" stroke-width="2" stroke-linecap="round" class="cl_wire"/>
    <path style="stroke-linecap: round;" fill="none" stroke="#000000" d="M 1800 1750 L 2425 1750" stroke-width="2" stroke-linecap="round" class="cl_wire"/>
    <path style="stroke-linecap: round;" fill="none" stroke="#000000" d="M 2325 1750 L 2325 1793 A 7 7 0 1 1 2325 1807 L 2325 2050" stroke-width="2" stroke-linecap="round" class="cl_wire"/>
    <path style="stroke-linecap: round;" fill="none" stroke="#000000" d="M 2325 2050 L 2375 2050" stroke-width="2" stroke-linecap="round" class="cl_wire"/>
    <path style="stroke-linecap: round; stroke-miterlimit: 6;" fill="#ffffff" stroke="#000000" d="M50,50C50,36.19374,38.806255,25,25,25C11.193755,25,0,36.19374,0,50C0,63.80632,11.193755,75,25,75C38.806255,75,50,63.80632,50,50" stroke-width="2" stroke-linecap="round" stroke-miterlimit="6" transform="translate(2350,1950)"/>
    <path style="stroke-linecap: round; stroke-miterlimit: 6;" fill="none" stroke="#000000" d="M25,0L25,25" stroke-width="2" stroke-linecap="round" stroke-miterlimit="6" transform="translate(2350,1950)"/>
    <path style="stroke-linecap: round; stroke-miterlimit: 6;" fill="none" stroke="#000000" d="M25,100.00002L25,75" stroke-width="2" stroke-linecap="round" stroke-miterlimit="6" transform="translate(2350,1950)"/>
    <path style="font-size: 15px; font-weight: normal;" fill="#000000" stroke="none" d="M25.84227,33.168L24.157737,33.168L24.157737,40.48806L16.898932,40.48806L16.898932,42.17259L24.157737,42.17259L24.157737,49.49262L25.84227,49.49262L25.84227,42.17259L33.101076,42.17259L33.101076,40.48806L25.84227,40.48806L25.84227,33.168" font-size="15px" font-weight="normal" transform="translate(2350,1950)"/>
    <path style="font-size: 15px; font-weight: normal;" fill="#000000" stroke="none" d="M17.006089,60.39372L17.006089,62.07822L33.055093,62.07822L33.055093,60.39372L17.006089,60.39372" font-size="15px" font-weight="normal" transform="translate(2350,1950)"/>
    <text style="font-family: Arial; font-size: 16px; font-weight: bold; text-anchor: start;" x="0" y="0" text-anchor="start" stroke="none" fill="#000000" transform="translate(2406.25,2000)">
      <tspan dy="-2.3999999999999995">DC Adapter</tspan>
      <tspan dy="19.2" x="0">5V</tspan>
    </text>
    <path style="stroke-linecap: round;" fill="none" stroke="#000000" d="M 2375 1800 L 2375 1950" stroke-width="2" stroke-linecap="round" class="cl_wire"/>
    <path style="stroke-linecap: round;" fill="none" stroke="#000000" d="M 1700 1500 L 1700 1800" stroke-width="2" stroke-linecap="round" class="cl_wire"/>
    <path style="stroke-linecap: round;" fill="none" stroke="#000000" d="M 1700 1800 L 2425 1800" stroke-width="2" stroke-linecap="round" class="cl_wire"/>
    <path style="stroke-linecap: round;" fill="none" stroke="#000000" d="M 3000 1250 L 3000 1268 A 7 7 0 1 1 3000 1282 L 3000 1293 A 7 7 0 1 1 3000 1307 L 3000 1668 A 7 7 0 1 1 3000 1682 L 3000 1718 A 7 7 0 1 1 3000 1732 L 3000 1743 A 7 7 0 1 1 3000 1757 L 3000 1800" stroke-width="2" stroke-linecap="round" class="cl_wire"/>
    <path style="stroke-linecap: round;" fill="none" stroke="#000000" d="M 3050 1250 L 3050 1268 A 7 7 0 1 1 3050 1282 L 3050 1293 A 7 7 0 1 1 3050 1307 L 3050 1668 A 7 7 0 1 1 3050 1682 L 3050 1718 A 7 7 0 1 1 3050 1732 L 3050 1750" stroke-width="2" stroke-linecap="round" class="cl_wire"/>
    <path style="stroke-linecap: round;" fill="none" stroke="#000000" d="M 2725 1750 L 2768 1750 A 7 7 0 1 1 2782 1750 L 3050 1750" stroke-width="2" stroke-linecap="round" class="cl_wire"/>
    <path style="stroke-linecap: round;" fill="none" stroke="#000000" d="M 3075 1575 L 3150 1575" stroke-width="2" stroke-linecap="round" class="cl_wire"/>
    <path style="stroke-linecap: round;" fill="none" stroke="#000000" d="M 3000 1800 L 3075 1800" stroke-width="2" stroke-linecap="round" class="cl_wire"/>
    <path style="stroke-linecap: round;" fill="none" stroke="#000000" d="M 3050 1625 L 3068 1625 A 7 7 0 1 1 3082 1625 L 3150 1625" stroke-width="2" stroke-linecap="round" class="cl_wire"/>
    <path style="stroke-linecap: round;" fill="none" stroke="#000000" d="M 3100 1250 L 3100 1275" stroke-width="2" stroke-linecap="round" class="cl_wire"/>
    <path style="stroke-linecap: round;" fill="none" stroke="#000000" d="M 2850 1275 L 3100 1275" stroke-width="2" stroke-linecap="round" class="cl_wire"/>
    <path style="stroke-linecap: round;" fill="none" stroke="#000000" d="M 2850 1150 L 2850 1275" stroke-width="2" stroke-linecap="round" class="cl_wire"/>
    <path style="stroke-linecap: round;" fill="none" stroke="#000000" d="M 2725 1150 L 2850 1150" stroke-width="2" stroke-linecap="round" class="cl_wire"/>
    <path style="stroke-linecap: round;" fill="none" stroke="#000000" d="M 2925 1675 L 3068 1675 A 7 7 0 1 1 3082 1675 L 3150 1675" stroke-width="2" stroke-linecap="round" class="cl_wire"/>
    <path style="stroke-linecap: round;" fill="none" stroke="#000000" d="M 2925 1275 L 2925 1293 A 7 7 0 1 1 2925 1307 L 2925 1675" stroke-width="2" stroke-linecap="round" class="cl_wire"/>
    <path style="stroke-linecap: round;" fill="none" stroke="#000000" d="M 3150 1250 L 3150 1300" stroke-width="2" stroke-linecap="round" class="cl_wire"/>
    <path style="stroke-linecap: round;" fill="none" stroke="#000000" d="M 2725 1300 L 3150 1300" stroke-width="2" stroke-linecap="round" class="cl_wire"/>
    <path style="stroke-linecap: round;" fill="none" stroke="#000000" d="M 2900 1725 L 3068 1725 A 7 7 0 1 1 3082 1725 L 3150 1725" stroke-width="2" stroke-linecap="round" class="cl_wire"/>
    <path style="stroke-linecap: round;" fill="none" stroke="#000000" d="M 2900 1300 L 2900 1725" stroke-width="2" stroke-linecap="round" class="cl_wire"/>
    <path style="stroke-linecap: round; stroke-miterlimit: 6;" fill="none" stroke="#000000" d="M17.612615,17.612615L0,0" stroke-width="2" stroke-linecap="round" stroke-miterlimit="6" transform="matrix(0,1,-1,0,2325,1275)"/>
    <path style="stroke-linecap: round; stroke-miterlimit: 6;" fill="none" stroke="#000000" d="M57.387392,57.387392L75,75" stroke-width="2" stroke-linecap="round" stroke-miterlimit="6" transform="matrix(0,1,-1,0,2325,1275)"/>
    <path style="stroke-linecap: round; stroke-miterlimit: 6;" fill="none" stroke="#000000" d="M17.612615,17.612615L13.1932,28.661155L35.290274,19.82232L26.451445,41.9194L48.548554,33.0806L39.709726,55.177681L61.806806,46.338852L57.387392,57.387392" stroke-width="2" stroke-linecap="round" stroke-miterlimit="6" transform="matrix(0,1,-1,0,2325,1275)"/>
    <text style="font-family: Arial; font-size: 16px; font-weight: bold; text-anchor: start;" x="0" y="0" text-anchor="start" stroke="none" fill="#000000" transform="translate(2300,1344.2)">
      <tspan dy="-2.3999999999999995">R1</tspan>
      <tspan dy="19.2" x="0">10 kΩ</tspan>
    </text>
    <path style="stroke-linecap: round;" fill="none" stroke="#000000" d="M 3075 1575 L 3075 1800" stroke-width="2" stroke-linecap="round" class="cl_wire"/>
    <path style="stroke-linecap: round;" fill="none" stroke="#000000" d="M 2150 1300 L 2175 1300" stroke-width="2" stroke-linecap="round" class="cl_wire"/>
    <path style="stroke-linecap: round;" fill="none" stroke="#000000" d="M 2150 1250 L 2425 1250" stroke-width="2" stroke-linecap="round" class="cl_wire"/>
    <path style="stroke-linecap: round;" fill="none" stroke="#000000" d="M 2325 1250 L 2325 1275" stroke-width="2" stroke-linecap="round" class="cl_wire"/>
    <path style="stroke-linecap: round;" fill="none" stroke="#000000" d="M 1750 1500 L 1750 1650" stroke-width="2" stroke-linecap="round" class="cl_wire"/>
    <path style="stroke-linecap: round;" fill="none" stroke="#000000" d="M 1750 1650 L 2425 1650" stroke-width="2" stroke-linecap="round" class="cl_wire"/>
    <path style="stroke-linecap: round;" fill="none" stroke="#000000" d="M 2725 1800 L 3000 1800" stroke-width="2" stroke-linecap="round" class="cl_wire"/>
    <path style="stroke-linecap: round;" fill="none" stroke="#000000" d="M 2250 1350 L 2250 1575" stroke-width="2" stroke-linecap="round" class="cl_wire"/>
    <path style="stroke-linecap: round;" fill="none" stroke="#000000" d="M 2250 1575 L 2775 1575" stroke-width="2" stroke-linecap="round" class="cl_wire"/>
    <path style="stroke-linecap: round;" fill="none" stroke="#000000" d="M 2775 1575 L 2775 1800" stroke-width="2" stroke-linecap="round" class="cl_wire"/>
    <path style="stroke-linecap: round;" fill="none" stroke="#000000" d="M 2825 1300 L 2825 1750" stroke-width="2" stroke-linecap="round" class="cl_wire"/>
    <path style="stroke-linecap: round;" fill="none" stroke="#000000" d="M 2175 1300 L 2175 1625" stroke-width="2" stroke-linecap="round" class="cl_wire"/>
    <path style="stroke-linecap: round;" fill="none" stroke="#000000" d="M 2175 1625 L 2750 1625" stroke-width="2" stroke-linecap="round" class="cl_wire"/>
    <path style="stroke-linecap: round;" fill="none" stroke="#000000" d="M 2750 1625 L 2750 1750" stroke-width="2" stroke-linecap="round" class="cl_wire"/>
    <circle cx="2375" cy="2050" r="3" fill="#000000" stroke="#000000"/>
    <circle cx="2325" cy="1750" r="3" fill="#000000" stroke="#000000"/>
    <circle cx="2375" cy="1800" r="3" fill="#000000" stroke="#000000"/>
    <circle cx="3000" cy="1800" r="3" fill="#000000" stroke="#000000"/>
    <circle cx="3050" cy="1625" r="3" fill="#000000" stroke="#000000"/>
    <circle cx="2925" cy="1275" r="3" fill="#000000" stroke="#000000"/>
    <circle cx="2900" cy="1300" r="3" fill="#000000" stroke="#000000"/>
    <circle cx="2325" cy="1250" r="3" fill="#000000" stroke="#000000"/>
    <circle cx="2775" cy="1800" r="3" fill="#000000" stroke="#000000"/>
    <circle cx="2825" cy="1300" r="3" fill="#000000" stroke="#000000"/>
    <circle cx="2825" cy="1750" r="3" fill="#000000" stroke="#000000"/>
    <circle cx="2750" cy="1750" r="3" fill="#000000" stroke="#000000"/>
  </g>
</svg>
